<?xml version="1.0" encoding="UTF-8"?>
<svg width="260px" height="132px" viewBox="0 0 260 132" version="1.1" xmlns="http://www.w3.org/2000/svg" xmlns:xlink="http://www.w3.org/1999/xlink">
    <!-- Generator: Sketch 49.1 (51147) - http://www.bohemiancoding.com/sketch -->
    <title>me-logo-new copy</title>
    <desc>Created with Sketch.</desc>
    <defs></defs>
    <g id="Page-1" stroke="none" stroke-width="1" fill="none" fill-rule="evenodd">
        <g id="Home-Copy-2" transform="translate(-152.000000, -184.000000)" fill="#FFFFFF" fill-rule="nonzero">
            <g id="me-logo-new-copy" transform="translate(152.000000, 184.000000)">
                <g id="Group" transform="translate(0.000000, 94.000000)">
                    <path d="M0.2,28.63 L10.44,28.63 L10.44,25.63 L7.24,25.63 L7.24,19.47 C7.24,15.51 9.48,11.43 13.32,11.43 C16.44,11.43 16.84,13.87 16.84,16.51 L16.84,28.63 L23.88,28.63 L23.88,25.63 L20.72,25.63 L20.72,19.31 C20.72,15.31 22.88,11.43 26.68,11.43 C29.72,11.43 30.24,13.67 30.24,16.51 L30.24,28.63 L37.32,28.63 L37.32,25.63 L34.12,25.63 L34.12,15.67 C34.12,10.51 32,7.91 27.52,7.91 C24.2,7.91 21.4,10.15 20.28,12.67 L20.2,12.67 C19.52,9.39 17.52,7.91 14.28,7.91 C11,7.91 8.08,10.43 7.08,12.83 L7,12.83 C7,12.83 7.12,12.31 7.12,11.67 L7.12,10.63 C7.12,9.15 6.28,8.39 4.56,8.39 L0,8.39 L0,11.39 L2.48,11.39 C3.04,11.39 3.36,11.67 3.36,12.23 L3.36,25.63 L0.2,25.63 L0.2,28.63 Z" id="Shape"></path>
                    <path d="M39.6,22.99 C39.6,27.15 42.96,29.11 46.32,29.11 C51.24,29.11 53,24.83 53,24.83 L53.08,24.83 C53.08,24.83 52.92,25.35 52.92,26.15 L52.92,26.43 C52.92,27.75 53.64,28.63 55.44,28.63 L59.48,28.63 L59.48,25.63 L57.44,25.63 C56.88,25.63 56.56,25.35 56.56,24.75 L56.56,15.71 C56.56,10.59 53.84,7.91 48.68,7.91 C43.96,7.91 41,10.31 41,10.31 L42.56,13.07 C42.56,13.07 45.16,11.11 48.36,11.11 C50.84,11.11 52.68,12.23 52.68,15.43 L52.68,16.19 L51.4,16.19 C48.04,16.19 39.6,16.63 39.6,22.99 Z M43.52,22.67 C43.52,18.79 49.88,18.71 51.72,18.71 L52.72,18.71 L52.72,19.55 C52.72,22.59 50.6,26.11 47.16,26.11 C44.84,26.11 43.52,24.47 43.52,22.67 Z" id="Shape"></path>
                    <path d="M64.72,4.35 L68.8,4.35 L68.8,0.39 L64.72,0.39 L64.72,4.35 Z M59.6,33.63 L59.6,36.79 C59.6,36.79 60.12,36.87 60.92,36.87 C63.44,36.87 68.68,35.99 68.68,29.23 L68.68,8.39 L61.4,8.39 L61.4,11.39 L64.8,11.39 L64.8,29.11 C64.8,33.15 61.96,33.67 60.48,33.67 C59.96,33.67 59.6,33.63 59.6,33.63 Z" id="Shape"></path>
                    <path d="M73.68,18.47 C73.68,24.63 78.56,29.11 84.6,29.11 C90.64,29.11 95.52,24.63 95.52,18.47 C95.52,12.35 90.64,7.91 84.6,7.91 C78.56,7.91 73.68,12.35 73.68,18.47 Z M77.64,18.47 C77.64,14.27 80.76,11.27 84.6,11.27 C88.4,11.27 91.56,14.27 91.56,18.47 C91.56,22.71 88.4,25.75 84.6,25.75 C80.76,25.75 77.64,22.71 77.64,18.47 Z" id="Shape"></path>
                    <path d="M98.96,28.63 L108.88,28.63 L108.88,25.63 L105.88,25.63 L105.88,20.27 C105.88,16.31 107.72,11.95 112.04,11.95 C112.68,11.95 113.16,12.07 113.16,12.07 L113.16,8.23 C113.16,8.23 112.68,8.15 112.16,8.15 C109.04,8.15 106.68,10.47 105.76,13.43 L105.68,13.43 C105.68,13.43 105.76,12.83 105.76,12.03 L105.76,10.75 C105.76,9.11 104.92,8.39 103.16,8.39 L98.6,8.39 L98.6,11.39 L101.12,11.39 C101.68,11.39 102,11.67 102,12.27 L102,25.63 L98.96,25.63 L98.96,28.63 Z" id="Shape"></path>
                    <path d="M118.88,4.35 L122.96,4.35 L122.96,0.39 L118.88,0.39 L118.88,4.35 Z M115.8,28.63 L126.04,28.63 L126.04,25.63 L122.84,25.63 L122.84,8.39 L115.6,8.39 L115.6,11.39 L118.96,11.39 L118.96,25.63 L115.8,25.63 L115.8,28.63 Z" id="Shape"></path>
                    <path d="M131.24,21.23 C131.24,27.99 136.4,28.79 138.96,28.79 C139.8,28.79 140.36,28.71 140.36,28.71 L140.36,25.47 C140.36,25.47 140,25.51 139.44,25.51 C137.92,25.51 135.12,24.99 135.12,20.87 L135.12,11.39 L139.96,11.39 L139.96,8.39 L135.12,8.39 L135.12,2.83 L131.32,2.83 L131.32,8.39 L127.84,8.39 L127.84,11.39 L131.24,11.39 L131.24,21.23 Z" id="Shape"></path>
                    <path d="M144.08,32.83 L142.76,35.75 C142.76,35.75 144.52,37.03 147.12,37.03 C150.24,37.03 152.88,35.27 154.24,31.83 L162.24,11.39 L164.76,11.39 L164.76,8.39 L155.8,8.39 L155.8,11.39 L158.4,11.39 L153.92,23.43 C153.6,24.31 153.44,25.19 153.44,25.19 L153.32,25.19 C153.32,25.19 153.24,24.31 152.96,23.43 L148.44,11.39 L151.12,11.39 L151.12,8.39 L141.88,8.39 L141.88,11.39 L144.44,11.39 L151.52,28.99 L150.68,30.99 C150,32.59 148.68,33.79 146.96,33.79 C145.24,33.79 144.08,32.83 144.08,32.83 Z" id="Shape"></path>
                    <path d="M167.12,28.63 L177.04,28.63 L177.04,25.63 L174.04,25.63 L174.04,20.27 C174.04,16.31 175.88,11.95 180.2,11.95 C180.84,11.95 181.32,12.07 181.32,12.07 L181.32,8.23 C181.32,8.23 180.84,8.15 180.32,8.15 C177.2,8.15 174.84,10.47 173.92,13.43 L173.84,13.43 C173.84,13.43 173.92,12.83 173.92,12.03 L173.92,10.75 C173.92,9.11 173.08,8.39 171.32,8.39 L166.76,8.39 L166.76,11.39 L169.28,11.39 C169.84,11.39 170.16,11.67 170.16,12.27 L170.16,25.63 L167.12,25.63 L167.12,28.63 Z" id="Shape" opacity="0.6"></path>
                    <path d="M186.24,21.35 C186.24,26.71 188.52,29.11 192.88,29.11 C197.92,29.11 200.2,25.39 200.6,24.31 L200.68,24.31 C200.68,24.31 200.6,24.83 200.6,25.51 L200.6,26.39 C200.6,27.83 201.4,28.63 203.16,28.63 L207.36,28.63 L207.36,25.67 L205.24,25.67 C204.68,25.67 204.36,25.35 204.36,24.79 L204.36,8.39 L197.08,8.39 L197.08,11.39 L200.48,11.39 L200.48,17.71 C200.48,21.71 197.96,25.59 193.92,25.59 C190.68,25.59 190.12,23.35 190.12,20.55 L190.12,8.39 L182.84,8.39 L182.84,11.39 L186.24,11.39 L186.24,21.35 Z" id="Shape" opacity="0.6"></path>
                    <path d="M211.76,22.87 C211.76,27.59 214.24,28.75 217.12,28.75 C218.04,28.75 218.84,28.67 218.84,28.67 L218.88,25.47 C218.88,25.47 218.44,25.51 217.8,25.51 C216.04,25.51 215.64,24.35 215.64,22.63 L215.64,0.39 L208.4,0.39 L208.4,3.39 L211.76,3.39 L211.76,22.87 Z" id="Shape" opacity="0.6"></path>
                    <path d="M221.56,18.51 C221.56,24.51 225.92,29.11 232.28,29.11 C237.12,29.11 240.16,26.31 240.16,26.31 L238.56,23.47 C238.56,23.47 236.04,25.75 232.52,25.75 C228.92,25.75 225.76,23.35 225.52,18.87 L240.32,18.87 C240.32,18.87 240.44,17.91 240.44,17.39 C240.44,12.15 237.44,7.91 231.68,7.91 C225.92,7.91 221.56,12.07 221.56,18.51 Z M225.68,16.39 C226.24,12.99 228.64,10.99 231.6,10.99 C234.16,10.99 236.32,12.83 236.44,16.39 L225.68,16.39 Z" id="Shape" opacity="0.6"></path>
                    <path d="M243.72,24.27 C243.72,27.47 247.96,29.11 251.64,29.11 C256.24,29.11 259.76,26.99 259.76,23.15 C259.76,19.39 256.2,18.07 253.08,17.03 C250.64,16.19 248.4,15.39 248.4,13.47 C248.4,11.83 250.08,11.03 252,11.03 C253.96,11.03 255.56,11.87 255.56,13.11 L255.56,14.43 L258.96,14.43 L258.96,11.99 C258.96,9.03 254.8,7.91 251.96,7.91 C248.44,7.91 244.48,9.51 244.48,13.51 C244.48,17.19 247.8,18.55 250.8,19.67 C253.6,20.67 255.84,21.31 255.84,23.35 C255.84,25.03 254.04,25.95 251.76,25.95 C249.52,25.95 247.12,25.15 247.12,23.43 L247.12,22.11 L243.72,22.11 L243.72,24.27 Z" id="Shape" opacity="0.6"></path>
                </g>
                <path d="M162.876,42.739 C160.311,60.097 148.91,71.305 131.624,73.065 L129.881,73.11 L128.137,73.065 C114.22,72.157 102.166,62.8 98.158,49.273 C97.528,47.145 97.31,44.917 96.885,42.739 L162.876,42.739 Z M142.744,52.822 C135.65,59.917 124.108,59.919 117.013,52.825 L114.305,55.535 C118.6,59.83 124.237,61.975 129.878,61.975 L129.877,61.975 C135.518,61.975 141.161,59.827 145.455,55.533 L142.744,52.822 Z" id="Shape"></path>
                <path d="M94.002,38.735 L165.547,38.735 C166.798,38.735 167.842,37.818 167.842,36.717 L172.032,9.86 C172.032,7.931 169.317,7.107 167.964,8.577 L152.729,19.569 C151.791,20.58 150.12,20.58 149.183,19.569 L131.653,0.758 C130.715,-0.253 129.044,-0.253 128.107,0.758 L110.577,19.569 C109.64,20.58 107.969,20.58 107.031,19.569 L91.796,8.577 C90.438,7.107 87.728,7.935 87.728,9.86 L91.918,36.717 C91.706,37.818 92.75,38.735 94.001,38.735 L94.002,38.735 Z" id="Shape"></path>
            </g>
        </g>
    </g>
</svg>