<svg id="svgcontent" width="640" height="480" x="640" y="480" overflow="visible" xmlns="http://www.w3.org/2000/svg" xmlns:se="http://svg-edit.googlecode.com" xmlns:xlink="http://www.w3.org/1999/xlink" viewBox="0 0 640 480"><!-- Created with SVG-edit - http://svg-edit.googlecode.com/ --><defs><symbol xmlns="http://www.w3.org/2000/svg" width="752pt" height="752pt" viewBox="0 0 752 752" id="svg_1"><g><path d="M376,518.07C299.281,518.07 184.3,387.74 179.37,382.25L173.8778,376L179.37,369.75C184.2958,364.2539 299.28,233.92 376,233.92S567.71,364.25 572.63,369.74L578.1222,375.99L572.63,382.24C567.7081,387.7361 452.72,518.06 376,518.06L376,518.07zM199.26,376C223.127,401.953 316.71,499.13 376,499.13C435.293,499.13 528.87,401.95 552.74,376C528.873,350.051 435.29,252.87 376,252.87C316.711,252.87 223.13,350.05 199.26,376z"></path><path d="M376,442.3C358.418,442.3 341.555,435.3117 329.121,422.878C316.683,410.444 309.699,393.581 309.699,375.995C309.699,358.413 316.6834,341.55 329.121,329.116C341.555,316.678 358.418,309.694 376,309.694C393.586,309.694 410.449,316.6784 422.883,329.116C435.317,341.55 442.305,358.413 442.305,375.995C442.305,393.581 435.3167,410.444 422.883,422.878C410.449,435.312 393.586,442.3 376,442.3zM376,328.64C363.441,328.64 351.395,333.6283 342.516,342.511C333.6332,351.3899 328.645,363.437 328.645,375.995C328.645,388.557 333.6333,400.6 342.516,409.483C351.3949,418.3658 363.442,423.354 376,423.354C388.562,423.354 400.605,418.3657 409.488,409.483C418.3708,400.6002 423.359,388.557 423.359,375.995C423.359,363.436 418.3707,351.39 409.488,342.511C400.6052,333.6282 388.562,328.64 376,328.64z"></path></g></symbol></defs><g style="pointer-events:all"><title style="pointer-events:inherit">Layer 1</title><use id="svg_2" xlink:href="#svg_1" transform="matrix(0.21276596188545227,0,0,0.21276596188545227,0,0) " y="0" x="0" fill="#ffffff"></use><g id="svg_3"></g></g></svg>